# xmcd
#
# Track frame offsets:
#	150
#	11326
#	25098
#	36867
#	48245
#	60547
#	70573
#	83271
#	94462
#	110120
#
# Disc length: 1591 seconds
#
# Revision: 1
# Processed by: cddbd v1.5.2PL0 Copyright (c) Steve Scherf et al.
# Submitted via: audiograbber 1.83.01
#
DISCID=7106350a
DTITLE=Jean Shepard - Slippin' Away
DYEAR=1973
DGENRE=Country
TTITLE0=Slippin' Away
TTITLE1=The Teddy Bear Song
TTITLE2=The Last Thing On My Mind
TTITLE3=Till I Get It Right
TTITLE4=It's Not Love (But It's Not Bad)
TTITLE5=Come On Phone
TTITLE6=Think I'll Go Somewhere
TTITLE7=Funny Face
TTITLE8=Safe In The Love Of My Man
TTITLE9=Are You Sincere
EXTD=
EXTT0=
EXTT1=
EXTT2=
EXTT3=
EXTT4=
EXTT5=
EXTT6=
EXTT7=
EXTT8=
EXTT9=
PLAYORDER=
